# xmcd
#
# Track frame offsets: 
#        150
#        14625
#        32073
#        46145
#        62364
#
# Disc length: 1273 seconds
#
# Revision: 1
# Processed by: cddbd v1.5.2PL0 Copyright (c) Steve Scherf et al.
# Submitted via: ExactAudioCopy v0.90b4
#
DISCID=3604f705
DTITLE=Stephanie McKay - 
DYEAR=2007
DGENRE=Rhythmic Soul
TTITLE0=Tell it like it is
TTITLE1=m.o.n.e.y
TTITLE2=Rising tide
TTITLE3=Take me over
TTITLE4=Tell it like it is(DJ Spinna Remix)
EXTD=YEAR: 2007
EXTT0=
EXTT1=
EXTT2=
EXTT3=
EXTT4=
PLAYORDER=
